<svg width="25" height="23" viewBox="0 0 112 92" fill="none" xmlns="http://www.w3.org/2000/svg">
<path d="M37.91 71.03C56.1796 71.03 70.99 56.2196 70.99 37.95C70.99 19.6804 56.1796 4.87 37.91 4.87C19.6405 4.87 4.82996 19.6804 4.82996 37.95C4.82996 56.2196 19.6405 71.03 37.91 71.03Z" stroke="#5016C5" stroke-width="0.38" stroke-miterlimit="10"/>
<path d="M37.91 72.94C18.59 72.94 2.92004 57.28 2.92004 37.95C2.92004 18.62 18.58 2.95999 37.91 2.95999C57.24 2.95999 72.8999 18.62 72.8999 37.95C72.8999 43.99 71.3699 49.68 68.6699 54.64C68.8099 54.61 68.9601 54.58 69.1101 54.56C69.6801 54.48 70.25 54.52 70.79 54.66C73.35 49.64 74.8 43.97 74.8 37.96C74.8 17.62 58.25 1.07001 37.91 1.07001C17.57 1.07001 1.02002 17.62 1.02002 37.96C1.02002 58.3 17.57 74.85 37.91 74.85C49.24 74.85 59.3899 69.71 66.1599 61.65C65.7299 61.08 65.4401 60.41 65.3201 59.69C58.9101 67.76 49.02 72.94 37.91 72.94Z" fill="#5016C5" stroke="#5016C5" stroke-width="0.38" stroke-miterlimit="10"/>
<path d="M66.1699 56.26C66.7999 55.44 67.6799 54.87 68.6699 54.64C71.3699 49.68 72.8999 44 72.8999 37.95C72.8999 18.63 57.24 2.95996 37.91 2.95996C18.58 2.95996 2.92004 18.62 2.92004 37.95C2.92004 57.28 18.58 72.94 37.91 72.94C49.02 72.94 58.9101 67.76 65.3201 59.69C65.3201 59.64 65.3 59.6 65.29 59.55C65.13 58.37 65.4399 57.21 66.1699 56.27V56.26ZM37.91 71.03C19.67 71.03 4.82996 56.19 4.82996 37.95C4.82996 19.71 19.67 4.86996 37.91 4.86996C56.15 4.86996 70.99 19.71 70.99 37.95C70.99 56.19 56.15 71.03 37.91 71.03Z" fill="#5016C5" stroke="#5016C5" stroke-width="0.38" stroke-miterlimit="10"/>
<path d="M68.54 60.47L105.44 88.7C106.19 89.27 107.3 89.17 107.95 88.51C107.65 88.81 107.24 88.99 106.79 88.99C105.88 88.99 105.14 88.25 105.14 87.34C105.14 86.43 105.88 85.69 106.79 85.69C107.7 85.69 108.44 86.43 108.44 87.34C108.44 87.79 108.26 88.2 107.96 88.5C108.01 88.45 108.06 88.4 108.11 88.34C108.42 87.94 108.55 87.44 108.49 86.93C108.42 86.43 108.16 85.98 107.76 85.67L70.8601 57.44C70.5201 57.18 70.12 57.05 69.71 57.05C69.63 57.05 69.54 57.05 69.46 57.07C68.96 57.89 68.4301 58.67 67.8701 59.45C67.9801 59.85 68.21 60.21 68.54 60.47Z" fill="#5016C5" stroke="#5016C5" stroke-width="0.38" stroke-miterlimit="10"/>
<path d="M69.45 57.07C68.95 57.14 68.5 57.4 68.19 57.8C67.88 58.2 67.7502 58.7 67.8102 59.21C67.8202 59.29 67.8402 59.37 67.8702 59.45C68.4302 58.68 68.9601 57.89 69.4601 57.07H69.45Z" fill="#5016C5" stroke="#5016C5" stroke-width="0.38" stroke-miterlimit="10"/>
<path d="M111 86.61C110.84 85.43 110.24 84.39 109.3 83.67L72.3999 55.44C71.9099 55.07 71.37 54.81 70.79 54.66C70.59 55.06 70.3799 55.45 70.1599 55.84C70.6699 55.92 71.1801 56.11 71.6201 56.44L108.52 84.67C109.91 85.73 110.18 87.73 109.11 89.12C108.49 89.94 107.54 90.36 106.59 90.36C105.92 90.36 105.24 90.15 104.66 89.71L67.76 61.48C67.44 61.23 67.19 60.94 66.99 60.61C66.72 60.96 66.4399 61.31 66.1599 61.65C66.3999 61.96 66.68 62.25 67 62.49L103.9 90.72C104.68 91.32 105.61 91.63 106.6 91.63C108 91.63 109.28 90.99 110.13 89.89C110.85 88.95 111.16 87.78 111.01 86.61H111Z" fill="#5016C5" stroke="#5016C5" stroke-width="0.38" stroke-miterlimit="10"/>
<path d="M66.8 57.7C66.33 58.38 65.8401 59.05 65.3201 59.69C65.4401 60.41 65.7299 61.08 66.1599 61.65C66.4399 61.31 66.72 60.96 66.99 60.61C66.46 59.74 66.38 58.65 66.79 57.7H66.8Z" fill="#5016C5" stroke="#5016C5" stroke-width="0.38" stroke-miterlimit="10"/>
<path d="M69.1101 54.56C68.9601 54.58 68.8199 54.61 68.6699 54.64C68.2599 55.39 67.8201 56.12 67.3601 56.84C68.0901 56.04 69.1399 55.69 70.1599 55.84C70.3799 55.45 70.58 55.06 70.79 54.66C70.25 54.52 69.6801 54.49 69.1101 54.56Z" fill="#5016C5" stroke="#5016C5" stroke-width="0.38" stroke-miterlimit="10"/>
<path d="M67.3602 56.84C67.8202 56.12 68.26 55.39 68.67 54.64C67.67 54.87 66.8 55.44 66.17 56.26C65.45 57.2 65.1401 58.37 65.2901 59.54C65.2901 59.59 65.3101 59.64 65.3201 59.68C65.8301 59.03 66.3301 58.37 66.8001 57.69C66.9001 57.46 67.02 57.23 67.18 57.03C67.24 56.96 67.3002 56.9 67.3602 56.84Z" fill="#5016C5" stroke="#5016C5" stroke-width="0.38" stroke-miterlimit="10"/>
<path d="M69.7 57.06C70.12 57.06 70.5201 57.2 70.8501 57.45L107.75 85.68C108.15 85.99 108.41 86.44 108.48 86.94C108.55 87.44 108.41 87.94 108.1 88.35C108.06 88.41 108 88.46 107.95 88.51C107.3 89.17 106.19 89.28 105.44 88.7L68.54 60.47C68.2 60.21 67.9701 59.85 67.8701 59.45C67.5901 59.84 67.3 60.23 67 60.61C67.2 60.94 67.45 61.23 67.77 61.48L104.67 89.71C105.25 90.15 105.92 90.36 106.6 90.36C107.55 90.36 108.5 89.93 109.12 89.12C110.18 87.73 109.92 85.74 108.53 84.67L71.6299 56.44C71.1899 56.1 70.6799 55.91 70.1699 55.84C69.9399 56.26 69.7 56.67 69.46 57.08C69.54 57.07 69.63 57.06 69.71 57.06H69.7Z" fill="#5016C5" stroke="#5016C5" stroke-width="0.38" stroke-miterlimit="10"/>
<path d="M67.36 56.84C67.17 57.13 66.9899 57.42 66.7999 57.7C66.3799 58.65 66.4699 59.74 66.9999 60.61C67.2999 60.23 67.59 59.84 67.87 59.45C67.85 59.37 67.8299 59.29 67.8099 59.21C67.7399 58.71 67.8798 58.21 68.1898 57.8C68.4998 57.4 68.9498 57.14 69.4498 57.07C69.6998 56.66 69.9298 56.25 70.1598 55.83C69.1398 55.68 68.08 56.03 67.36 56.83V56.84Z" fill="#5016C5" stroke="#5016C5" stroke-width="0.38" stroke-miterlimit="10"/>
<path d="M67.1799 57.03C67.0199 57.24 66.9 57.46 66.8 57.69C66.99 57.41 67.1801 57.12 67.3601 56.83C67.3001 56.9 67.2299 56.95 67.1799 57.02V57.03Z" fill="#5016C5" stroke="#5016C5" stroke-width="0.38" stroke-miterlimit="10"/>
<path d="M106.79 85.7C105.88 85.7 105.14 86.44 105.14 87.35C105.14 88.26 105.88 89 106.79 89C107.24 89 107.65 88.82 107.95 88.52C108.25 88.22 108.43 87.81 108.43 87.36C108.43 86.45 107.69 85.71 106.78 85.71L106.79 85.7Z" fill="white" stroke="white" stroke-width="0.38" stroke-miterlimit="10"/>
</svg>
